HIERARCHY
ROOT Hip
{
  OFFSET 0.0 0.0 0.0
  CHANNELS 6 Xposition Yposition Zposition Xrotation Yrotation Zrotation
  JOINT LowerSpine
  {
    OFFSET 0.0 0.061367 -0.03653
    CHANNELS 3 Xrotation Yrotation Zrotation
    JOINT MiddleSpine
    {
      OFFSET 0.0 0.056002 0.002633
      CHANNELS 3 Xrotation Yrotation Zrotation
      JOINT Chest
      {
        OFFSET 0.0 0.069296 -0.013882
        CHANNELS 3 Xrotation Yrotation Zrotation
        JOINT Neck
        {
          OFFSET 0.0 0.156156 -0.002923
          CHANNELS 3 Xrotation Yrotation Zrotation
          JOINT Head
          {
            OFFSET 0.0 0.088183 0.023986
            CHANNELS 3 Xrotation Yrotation Zrotation
            End Site
            {
              OFFSET 1e-06 0.123215 0.003678
            }
          }
        }
        JOINT LClavicle
        {
          OFFSET 0.014189 0.150698 0.046467
          CHANNELS 3 Xrotation Yrotation Zrotation
          JOINT LShoulder
          {
            OFFSET 0.082893 0.021616 -0.034976
            CHANNELS 3 Xrotation Yrotation Zrotation
            JOINT LForearm
            {
              OFFSET 0.195645 -0.000695 -0.001695
              CHANNELS 3 Xrotation Yrotation Zrotation
              JOINT LHand
              {
                OFFSET 0.163209 0.000474 -0.000977
                CHANNELS 3 Xrotation Yrotation Zrotation
                End Site
                {
                  OFFSET 0.0 0.006864 0.0
                }
              }
            }
          }
        }
        JOINT RClavicle
        {
          OFFSET -0.014189 0.150698 0.046467
          CHANNELS 3 Xrotation Yrotation Zrotation
          JOINT RShoulder
          {
            OFFSET -0.082908 0.021619 -0.034982
            CHANNELS 3 Xrotation Yrotation Zrotation
            JOINT RForearm
            {
              OFFSET -0.195645 -0.000695 -0.001695
              CHANNELS 3 Xrotation Yrotation Zrotation
              JOINT RHand
              {
                OFFSET -0.163209 0.000474 -0.000977
                CHANNELS 3 Xrotation Yrotation Zrotation
                End Site
                {
                  OFFSET 0.0 0.006864 0.0
                }
              }
            }
          }
        }
      }
    }
  }
  JOINT RThigh
  {
    OFFSET -0.072558 0.02774 -0.005953
    CHANNELS 3 Xrotation Yrotation Zrotation
    JOINT RShin
    {
      OFFSET -0.005253 -0.285537 0.0
      CHANNELS 3 Xrotation Yrotation Zrotation
      JOINT RFoot
      {
        OFFSET 0.0 -0.28038 0.0
        CHANNELS 3 Xrotation Yrotation Zrotation
        JOINT RToe
        {
          OFFSET 0.0 -0.030816 0.064441
          CHANNELS 3 Xrotation Yrotation Zrotation
          End Site
          {
            OFFSET 0.0 0.0 0.043231
          }
        }
      }
    }
  }
  JOINT LThigh
  {
    OFFSET 0.072557 0.027741 -0.005953
    CHANNELS 3 Xrotation Yrotation Zrotation
    JOINT LShin
    {
      OFFSET 0.005253 -0.285539 0.0
      CHANNELS 3 Xrotation Yrotation Zrotation
      JOINT LFoot
      {
        OFFSET 0.0 -0.28038 0.0
        CHANNELS 3 Xrotation Yrotation Zrotation
        JOINT LToe
        {
          OFFSET 0.0 -0.030816 0.064441
          CHANNELS 3 Xrotation Yrotation Zrotation
          End Site
          {
            OFFSET 0.0 0.0 0.043231
          }
        }
      }
    }
  }
}
MOTION
Frames: 8
Frame Time: 0.03333333333333333
-0.012571 0.583981 0.002041 8.384365 10.12881 2.980964 -8.438496 6.572958 -3.903808 0.439911 0.819442 -10.4361 -7.818522 -2.467858 7.439368 -4.978538 -10.209284 -2.232936 -7.221094 10.06233 0.791743 -1.623203 10.564606 -13.567368 21.492319 -21.708199 -49.536182 6.995425 -26.445965 -8.2995 -8.706075 -6.326553 4.179266 7.419701 -0.251091 21.463678 12.909529 31.28326 50.506889 3.446762 20.392828 8.145758 10.561468 2.618836 3.886517 -9.067605 -1.982498 -4.959159 19.013336 3.488129 5.556813 -5.065216 -1.541102 8.453553 1.163433 -8.719569 -6.074478 -5.626791 7.064689 -8.436913 8.694909 7.418561 2.909917 4.092075 0.96576 -9.198843 -9.620024 7.484666 3.169602 
-0.022642 0.58104 -0.001183 10.676679 12.102129 7.125187 -10.966406 10.520125 -5.82866 1.08146 -0.641604 -16.439379 -8.52433 -7.671884 8.742845 -2.164642 -15.510814 -4.083782 -7.364082 15.780558 2.359573 -6.144657 14.787054 -11.916384 23.870651 -17.960533 -43.510838 4.788939 -25.23888 -13.808857 -10.741634 -10.711819 7.982698 10.718754 4.569596 24.912115 14.774629 29.763281 44.08976 2.443637 25.940866 14.401466 15.059411 4.71441 6.724874 -15.356734 -1.147562 -10.407598 24.085745 8.709036 6.331586 -5.768959 -5.034348 13.268333 1.539503 -14.359153 -9.279298 -8.977965 11.182915 -13.172235 10.043391 13.511819 6.04157 6.563568 1.420977 -14.062738 -11.454851 12.547881 5.847107 
-0.027938 0.574962 0.003225 11.010468 11.496451 9.658308 -11.008873 11.00089 -7.652765 1.400739 -0.532624 -17.887772 -9.262386 -9.326135 9.436212 -2.399105 -16.772045 -4.525245 -6.937572 17.329414 2.49893 -6.430194 16.485992 -11.388412 23.824715 -17.861443 -42.824615 4.444431 -26.071411 -15.063173 -11.145245 -11.594255 8.872618 11.756639 3.621172 26.552275 14.669165 29.622551 43.562576 1.290163 27.139162 15.974139 16.16675 4.811121 7.355194 -16.61305 -2.207217 -12.550988 22.554855 9.505335 7.758214 -5.990926 -5.289972 15.129634 2.049391 -15.205818 -10.259295 -8.96045 11.539524 -14.571331 9.90857 15.487643 6.558949 7.062185 2.902178 -15.055326 -11.854516 13.753384 6.656827 
-0.024131 0.571649 0.012176 10.607306 9.367945 10.196135 -10.243882 10.82228 -8.877314 1.703422 -0.427569 -18.032991 -9.492168 -10.039568 9.455526 -1.880815 -16.878357 -4.573875 -6.924422 17.561172 2.496619 -6.35706 16.991566 -11.307883 22.738527 -18.991581 -43.237518 3.73345 -25.222095 -15.090795 -11.101613 -11.760571 9.029269 12.019362 2.660466 27.233229 14.24138 29.626297 43.917461 0.869328 26.946077 16.287624 16.401337 4.794694 7.416523 -17.208694 -3.271691 -12.642164 22.085064 8.881099 8.627698 -5.944065 -5.33336 15.573077 2.45602 -15.247245 -10.47217 -8.826927 11.157322 -14.433411 10.834743 15.354149 6.876769 6.417464 4.076769 -15.147063 -12.004162 13.955914 6.863727 
-0.026258 0.571476 0.022371 10.447129 6.124386 10.263969 -9.518474 10.571848 -9.682219 1.99676 -0.352871 -17.753553 -9.645049 -10.530159 9.343443 -1.868994 -16.792286 -4.658225 -7.207179 17.503393 2.37633 -6.233915 16.946606 -11.445155 21.717699 -20.730307 -43.417896 3.180352 -24.120255 -14.872797 -10.888188 -11.784694 9.066775 12.016814 1.939989 27.312195 14.392075 29.378 44.29187 1.006591 26.274828 16.435625 16.398857 4.727224 7.383821 -18.43396 -4.21417 -12.012108 21.622746 8.06309 9.355347 -5.862577 -4.877645 15.634439 2.845662 -15.128475 -10.522186 -8.145089 10.460032 -14.268983 11.412237 14.485834 6.888247 5.115405 4.768263 -15.216299 -11.981306 13.96157 6.921391 
-0.026477 0.569123 0.029639 10.820134 3.684148 10.629486 -9.033981 10.574641 -10.4255 2.091551 -0.636954 -17.674179 -9.872018 -11.241524 9.361962 -2.020294 -16.961306 -4.772059 -7.405818 17.65995 2.28988 -6.355252 16.878216 -11.490417 21.201342 -22.031221 -43.254375 2.373697 -23.552227 -15.062917 -10.853736 -11.866727 9.235276 12.09671 2.070421 27.210682 14.385823 29.052059 44.645866 0.922607 25.06077 16.691011 16.584349 4.739986 7.398683 -20.177959 -4.710803 -11.468402 19.978384 7.859 9.797803 -5.712726 -4.143694 16.094028 3.219815 -15.185365 -10.627811 -7.844478 9.682934 -14.695122 11.952635 13.674067 7.056479 3.985289 4.950264 -15.611414 -11.928066 14.253298 7.00144 
-0.02587 0.56597 0.038432 11.744139 2.365497 11.36904 -9.166693 10.718609 -11.04865 2.078866 -1.003739 -17.938789 -9.866782 -12.13484 9.476858 -2.792731 -17.372625 -4.908845 -7.537564 18.088802 2.243826 -6.411279 17.222607 -11.598383 21.077837 -22.724363 -42.69125 1.632106 -23.746304 -15.622466 -10.983155 -12.143275 9.516016 12.491373 2.311042 27.291965 14.50507 28.558266 44.857868 0.522996 24.048803 17.18161 16.98962 4.845984 7.553592 -22.651278 -4.953649 -11.467249 18.013477 7.891994 10.224589 -5.699822 -3.206841 16.931589 3.675505 -15.419105 -10.899766 -7.986701 8.835293 -15.309048 12.742537 13.313473 7.319254 3.181607 5.116282 -16.232664 -11.921019 14.869404 7.148445 
-0.024344 0.563309 0.04759 12.814931 2.268599 11.850319 -9.410587 10.755289 -11.535639 1.909871 -1.371514 -18.176363 -9.916562 -13.067232 9.452854 -3.371834 -17.768831 -4.986315 -7.744793 18.445105 2.151277 -6.385862 17.623268 -11.640676 21.202026 -23.039732 -42.085808 1.051263 -24.632545 -16.255863 -11.071569 -12.412005 9.74342 12.903827 2.238486 27.497366 14.560548 27.471455 45.315929 -0.132375 23.21405 17.365482 17.331528 4.93729 7.705887 -25.454201 -5.194029 -11.613778 16.26152 7.917414 10.603302 -5.435997 -2.407756 17.737617 4.076824 -15.645708 -11.111798 -8.354501 8.365752 -15.868253 13.289513 13.299129 7.606467 2.566311 5.209044 -16.743158 -11.971818 15.405304 7.262958 
